<svg style="display:none"><defs><svg id="op3-icons-cart-in-9-2" xmlns="http://www.w3.org/2000/svg" viewBox="0 0 32 32"><path fill="currentColor" d="M0 1v2h3v19a1 1 0 001 1h28v-2H5v-2h21a1 1 0 00.97-.758l3-12c.076-.299.007-.614-.183-.857S29.308 5 29 5H17v5h4l-5 6-5-6h4V5H5V2a1 1 0 00-1-1H0zm6 24a3 3 0 100 6 3 3 0 000-6zm21 0a3 3 0 100 6 3 3 0 000-6z"/></svg><svg id="op3-icons-check-2-2" xmlns="http://www.w3.org/2000/svg" viewBox="0 0 32 32"><path fill="currentColor" d="M28.586 5.586L12 22.172l-8.586-8.586-2.828 2.828L12 27.828 31.414 8.414l-2.828-2.828z"/></svg><svg id="op3-icons-link-71-1" xmlns="http://www.w3.org/2000/svg" viewBox="0 0 32 32"><path fill="currentColor" d="M7 9c-3.845 0-7 3.155-7 7s3.155 7 7 7h5c3.845 0 7-3.155 7-7v-1h-2v1c0 2.755-2.245 5-5 5H7c-2.755 0-5-2.245-5-5s2.245-5 5-5h5V9H7zm13 0c-3.845 0-7 3.155-7 7v1h2v-1c0-2.755 2.245-5 5-5h5c2.755 0 5 2.245 5 5s-2.245 5-5 5h-5v2h5c3.845 0 7-3.155 7-7s-3.155-7-7-7h-5z"/></svg><svg id="op3-icons-menu-34-2" xmlns="http://www.w3.org/2000/svg" viewBox="0 0 32 32"><path fill="currentColor" d="M2 6c-.6 0-1 .4-1 1s.4 1 1 1h28c.6 0 1-.4 1-1s-.4-1-1-1H2zm0 9c-.6 0-1 .4-1 1s.4 1 1 1h28c.6 0 1-.4 1-1s-.4-1-1-1H2zm0 9c-.6 0-1 .4-1 1s.4 1 1 1h28c.6 0 1-.4 1-1s-.4-1-1-1H2z"/></svg><svg id="op3-icons-small-add-1" xmlns="http://www.w3.org/2000/svg" viewBox="0 0 32 32"><path fill="currentColor" d="M15 8v7H8v2h7v7h2v-7h7v-2h-7V8h-2z"/></svg><svg id="op3-icons-small-delete-1" xmlns="http://www.w3.org/2000/svg" viewBox="0 0 32 32"><path fill="currentColor" d="M8 15v2h16v-2H8z"/></svg><svg id="op3-icons-small-down" xmlns="http://www.w3.org/2000/svg" viewBox="0 0 32 32"><path fill="currentColor" d="M10 11.586L8.586 13 16 20.414 23.414 13 22 11.586l-6 6-6-6z"/></svg><svg id="op3-icons-square-remove-09-2" xmlns="http://www.w3.org/2000/svg" viewBox="0 0 32 32"><path fill="currentColor" d="M1 0C.4 0 0 .4 0 1v30c0 .6.4 1 1 1h30c.6 0 1-.4 1-1V1c0-.6-.4-1-1-1H1zm9 9c.25 0 .5.1.7.3l5.3 5.3 5.3-5.3c.4-.4 1-.4 1.4 0 .4.4.4 1 0 1.4L17.4 16l5.3 5.3c.4.4.4 1 0 1.4-.2.2-.4.3-.7.3s-.5-.1-.7-.3L16 17.4l-5.3 5.3c-.2.2-.4.3-.7.3s-.5-.1-.7-.3c-.4-.4-.4-1 0-1.4l5.3-5.3-5.3-5.3c-.4-.4-.4-1 0-1.4.2-.2.45-.3.7-.3z"/></svg></defs></svg>