<svg style="display:none"><defs><svg id="op3-icons-cart-in-9-2" xmlns="http://www.w3.org/2000/svg" viewBox="0 0 32 32"><path fill="currentColor" d="M0 1v2h3v19a1 1 0 001 1h28v-2H5v-2h21a1 1 0 00.97-.758l3-12c.076-.299.007-.614-.183-.857S29.308 5 29 5H17v5h4l-5 6-5-6h4V5H5V2a1 1 0 00-1-1H0zm6 24a3 3 0 100 6 3 3 0 000-6zm21 0a3 3 0 100 6 3 3 0 000-6z"/></svg><svg id="op3-icons-check-2-2" xmlns="http://www.w3.org/2000/svg" viewBox="0 0 32 32"><path fill="currentColor" d="M28.586 5.586L12 22.172l-8.586-8.586-2.828 2.828L12 27.828 31.414 8.414l-2.828-2.828z"/></svg><svg id="op3-icons-small-add-1" xmlns="http://www.w3.org/2000/svg" viewBox="0 0 32 32"><path fill="currentColor" d="M15 8v7H8v2h7v7h2v-7h7v-2h-7V8h-2z"/></svg><svg id="op3-icons-small-delete-1" xmlns="http://www.w3.org/2000/svg" viewBox="0 0 32 32"><path fill="currentColor" d="M8 15v2h16v-2H8z"/></svg></defs></svg>